<svg width="90" height="90" viewBox="0 0 90 90" fill="none" xmlns="http://www.w3.org/2000/svg">
<mask id="mask0_369_3819" style="mask-type:luminance" maskUnits="userSpaceOnUse" x="48" y="3" width="39" height="53">
<path d="M86.669 3.59961H48.0469V55.9497H86.669V3.59961Z" fill="white"/>
</mask>
<g mask="url(#mask0_369_3819)">
<path d="M48.0469 10.0276L48.8188 3.59961L49.6181 3.69586L51.2799 9.19023L54.2533 4.25166L55.0415 4.34611L54.2697 10.7741L53.5776 10.6905L54.1988 5.51944L51.358 10.4235L50.9003 10.369L49.3692 4.94005L48.748 10.1111L48.0469 10.0276Z" fill="#D9D9D9"/>
<path d="M54.9556 11.212C55.112 11.6479 55.8167 11.9621 56.3144 11.4263L56.7792 10.8996L56.178 6.18262L56.8447 6.38239L57.2823 10.4455L60.0649 7.34868L60.7316 7.54848L56.7864 11.7496C55.9274 12.6687 54.8431 12.2509 54.4453 11.4663L54.952 11.2084L54.9556 11.212Z" fill="#D9D9D9"/>
<path d="M69.4946 7.78808L70.5409 8.37839L66.298 15.9107L65.2518 15.3204L67.079 12.0764L64.467 10.6052L62.6398 13.8492L61.5938 13.2588L65.8366 5.72656L66.8828 6.31687L65.0556 9.56081L67.6674 11.032L69.4946 7.78808Z" fill="#D9D9D9"/>
<path d="M72.9255 15.8297L68.8861 16.2765C68.9806 16.4436 69.1077 16.5962 69.2674 16.7234C69.6925 17.0576 70.241 17.1248 70.7133 16.9522L70.8568 18.1637C70.072 18.3617 69.2076 18.2073 68.5227 17.6679C67.3513 16.7451 67.1479 15.0487 68.0704 13.8754C68.9932 12.7038 70.6897 12.5004 71.863 13.4231C72.7603 14.1297 72.8566 14.8598 72.9237 15.8297H72.9255ZM71.4853 14.7799C71.3944 14.6255 71.2726 14.4838 71.1219 14.3658C70.4716 13.8536 69.5291 13.9662 69.0168 14.6164C68.9043 14.7599 68.8224 14.9161 68.7697 15.0796L71.4853 14.7781V14.7799Z" fill="#D9D9D9"/>
<path d="M78.0468 19.3923L74.1055 23.083L73.6951 22.6454L73.7187 21.9188C73.1774 21.8153 72.6651 21.5447 72.2601 21.1124C71.2413 20.0244 71.2975 18.3152 72.3854 17.2963C73.4735 16.2773 75.1826 16.3336 76.2016 17.4216C76.5812 17.8267 76.81 18.3171 76.8953 18.8256L77.226 18.5151L78.0468 19.3923ZM75.2535 20.3604C75.8583 19.7937 75.8891 18.8456 75.3225 18.2426C74.7558 17.6378 73.8076 17.6069 73.2046 18.1736C72.5998 18.7403 72.569 19.6884 73.1355 20.2932C73.7023 20.898 74.6505 20.9289 75.2535 20.3622V20.3604Z" fill="#D9D9D9"/>
<path d="M80.1128 22.2953C80.6357 23.0418 80.4523 24.0716 79.7058 24.5929L79.0175 23.6086C79.2209 23.4668 79.2699 23.1871 79.1282 22.9837C78.6541 22.3062 77.7188 22.1391 77.0413 22.6132L74.8291 24.1607L74.1406 23.1761L78.5671 20.083L79.2553 21.0675L78.8829 21.3272C79.3644 21.5143 79.7967 21.8412 80.1146 22.2953H80.1128Z" fill="#D9D9D9"/>
<path d="M79.4975 28.2383L79.7556 28.832C78.8491 29.2571 78.9854 30.3323 79.2196 30.8719C79.5085 31.5383 80.0951 32.1706 80.8889 31.8581C81.6481 31.5602 81.7788 30.9263 81.4865 29.7149C81.1306 28.3289 81.3229 27.3464 82.2639 26.9267C83.2483 26.5091 84.2236 27.0811 84.7085 28.1964C85.19 29.3025 84.9774 30.5612 83.9095 31.0571L83.6515 30.4631C84.4761 30.0727 84.4889 29.1155 84.1874 28.4234C83.8985 27.7568 83.2483 27.2483 82.5253 27.5516C81.9277 27.8004 81.7608 28.4507 82.0369 29.5514C82.4308 31.1225 82.1966 32.0597 81.1231 32.4939C79.997 32.9297 79.1308 32.1416 78.6857 31.0717C78.2188 29.9492 78.4024 28.745 79.4975 28.2383Z" fill="#D9D9D9"/>
<path d="M78.0625 33.939L84.5267 32.2607L84.7011 32.9346L83.5059 33.2451C84.356 33.3596 85.1441 34.0553 85.3876 34.9542C85.7453 36.331 84.9425 37.6533 83.5676 38.0111C82.0202 38.4127 80.8032 37.6243 80.4599 36.2639C80.2184 35.334 80.5361 34.3694 81.221 33.8481L78.2405 34.6219L78.0625 33.939ZM83.3932 37.3464C84.4939 37.0613 85.0298 35.9588 84.7738 34.9724C84.5085 33.9881 83.5023 33.2759 82.4106 33.5594C81.1956 33.8753 80.7398 34.9652 80.9958 35.9532C81.2447 36.9522 82.1219 37.6769 83.3932 37.3464Z" fill="#D9D9D9"/>
<path d="M83.6922 38.7911C85.314 38.6475 86.3967 39.6447 86.511 41.0634C86.5965 42.0313 86.1261 42.9486 85.3451 43.3608L86.6055 43.2501L86.6672 43.953L81.7143 44.3906L81.6524 43.697L82.9421 43.5825C82.101 43.3228 81.4472 42.4928 81.3637 41.5464C81.2274 40.1116 82.2536 38.9182 83.6902 38.7911H83.6922ZM84.1044 43.4499C85.3649 43.339 86.0226 42.3056 85.9407 41.2794C85.85 40.2441 85.0924 39.3651 83.7539 39.483C82.6005 39.5847 81.883 40.6037 81.9739 41.6281C82.0756 42.6633 82.9601 43.5498 84.1044 43.4481V43.4499Z" fill="#D9D9D9"/>
<path d="M84.1621 44.9561C85.7659 45.0722 86.6794 46.3092 86.5705 47.8057C86.4888 48.921 85.8332 49.8273 84.9649 50.1471L84.7469 49.4822C85.4552 49.1989 85.9293 48.516 85.9839 47.7623C86.0602 46.716 85.3445 45.7389 84.1113 45.6498C82.9759 45.5681 82.086 46.4364 82.0116 47.4644C81.9535 48.2562 82.3621 49.0045 83.0232 49.3769L82.7037 49.9927C81.8826 49.5204 81.3341 48.5451 81.414 47.4297C81.5211 45.9623 82.6836 44.8562 84.1603 44.9543L84.1621 44.9561Z" fill="#D9D9D9"/>
<path d="M83.6851 50.8459C85.2889 51.2255 85.9338 52.6295 85.6176 53.9644C85.3125 55.2523 84.21 56.1604 82.617 55.9044L82.3209 55.8335L83.349 51.4507C82.3011 51.2836 81.3748 52.0411 81.1586 52.9074C81.0042 53.5558 81.1586 54.3096 81.6981 54.8001L81.2967 55.2595C80.6154 54.6439 80.3666 53.6976 80.5846 52.7731C80.9007 51.4361 82.2321 50.5026 83.6833 50.8459H83.6851ZM82.9059 55.2886C83.9992 55.4375 84.8457 54.7202 85.0547 53.8319C85.2635 52.9546 84.8277 51.943 83.7778 51.6033L82.9041 55.2886H82.9059Z" fill="#D9D9D9"/>
</g>
<path d="M44.9978 76.9536C62.6439 76.9536 76.9487 62.6487 76.9487 45.0027C76.9487 27.3566 62.6439 13.0518 44.9978 13.0518C27.3517 13.0518 13.0469 27.3566 13.0469 45.0027C13.0469 62.6487 27.3517 76.9536 44.9978 76.9536Z" fill="#D9D9D9"/>
<path d="M43.9435 65.9492C44.6392 65.5424 45.2113 65.1862 45.8179 64.8085C46.755 64.2237 47.725 63.6207 49.2926 62.7398C49.9683 62.3602 52.3168 61.0561 54.1985 60.1768C56.9374 58.8964 62.0359 56.517 68.5474 56.7078C70.4982 56.7658 72.4469 57.0583 74.374 57.5779C74.9626 56.2065 75.4549 54.7861 75.8489 53.3258C73.4351 52.4848 70.974 52.0217 68.5146 51.9472C62.2665 51.76 57.3242 54.0706 54.6669 55.311C52.8199 56.1739 50.5004 57.4615 49.8337 57.8375C48.2882 58.7058 47.329 59.3034 46.4027 59.881C45.7907 60.2623 45.2113 60.6237 44.501 61.0379C43.4439 61.6553 40.2309 63.5316 36.6782 64.7887C34.6584 65.5042 30.717 66.6067 25.6332 66.6067C24.9757 66.6067 24.2982 66.5887 23.6043 66.5486C22.7997 66.5014 21.9987 66.4269 21.2031 66.3234C22.8978 68.2123 24.8139 69.8998 26.91 71.3418C31.2093 71.1802 34.5312 70.2411 36.3076 69.6127C39.7641 68.3902 42.9082 66.554 43.9416 65.9492H43.9435Z" fill="url(#paint0_linear_369_3819)"/>
<path d="M68.5131 46.6472C62.2648 46.462 57.3227 48.7705 54.6655 50.0112C52.8182 50.8738 50.4987 52.1615 49.8322 52.5375C48.2865 53.4058 47.3275 54.0034 46.4012 54.5809C45.789 54.9623 45.2096 55.3239 44.4995 55.7379C43.4422 56.3555 40.2292 58.2318 36.6765 59.4886C34.6569 60.2044 30.7153 61.3069 25.6315 61.3069C24.974 61.3069 24.2965 61.2886 23.6026 61.2486C21.325 61.1179 19.0764 60.7601 16.875 60.1879C17.8068 61.9099 18.8929 63.5355 20.1135 65.0484C21.2868 65.2428 22.4729 65.3753 23.6645 65.4444C29.5312 65.7839 34.1027 64.5271 36.3041 63.7479C39.757 62.5255 42.9029 60.6892 43.9363 60.0862C44.6338 59.6794 45.206 59.3215 45.8126 58.9455C46.75 58.3607 47.7197 57.7577 49.2873 56.8768C49.963 56.4973 52.3115 55.1932 54.1932 54.3139C56.9321 53.0334 62.0306 50.6522 68.5421 50.8448C71.083 50.9211 73.6242 51.3934 76.1161 52.2524C76.4104 50.9845 76.6284 49.6879 76.7663 48.3691C74.0582 47.3121 71.2828 46.7345 68.5095 46.6508L68.5131 46.6472Z" fill="url(#paint1_linear_369_3819)"/>
<path d="M23.6705 60.1418C29.5374 60.4813 34.1089 59.2245 36.3103 58.4453C39.7632 57.2229 42.9091 55.3866 43.9425 54.7836C44.64 54.3766 45.2122 54.0189 45.8188 53.6429C46.7559 53.0581 47.7259 52.4551 49.2935 51.574C49.9692 51.1944 52.3175 49.8903 54.1994 49.0113C56.9383 47.7308 62.0368 45.3496 68.5483 45.5422C71.3435 45.6257 74.1389 46.1904 76.8688 47.2187C76.9197 46.4865 76.9469 45.7474 76.9469 45.0027C76.9469 27.357 62.6434 13.0518 44.9978 13.0518C27.3521 13.0518 13.0469 27.357 13.0469 45.0027C13.0469 49.963 14.1784 54.6601 16.1946 58.8503C18.6284 59.5624 21.1313 59.9964 23.6687 60.1436L23.6705 60.1418Z" fill="url(#paint2_linear_369_3819)"/>
<path d="M68.5177 57.8154C62.2697 57.6284 57.3273 59.9387 54.6701 61.1791C52.8231 62.042 50.5036 63.3297 49.8369 63.7057C48.2914 64.5739 47.3322 65.1715 46.4058 65.7491C45.7938 66.1305 45.2145 66.4918 44.5042 66.9061C43.4489 67.5237 40.2359 69.4 36.6813 70.6568C35.0575 71.2308 32.1876 72.0572 28.4844 72.3587C33.303 75.2738 38.9554 76.9521 44.9983 76.9521C57.7798 76.9521 68.8066 69.4452 73.9159 58.6018C72.1288 58.1333 70.3213 57.868 68.5177 57.8154Z" fill="url(#paint3_linear_369_3819)"/>
<path d="M20.7328 57.1151C21.3316 57.1151 21.8171 56.6295 21.8171 56.0306C21.8171 55.4318 21.3316 54.9463 20.7328 54.9463C20.1339 54.9463 19.6484 55.4318 19.6484 56.0306C19.6484 56.6295 20.1339 57.1151 20.7328 57.1151Z" fill="#D9D9D9"/>
<path d="M66.5843 41.9303C67.1832 41.9303 67.6688 41.4449 67.6688 40.846C67.6688 40.2473 67.1832 39.7617 66.5843 39.7617C65.9856 39.7617 65.5 40.2473 65.5 40.846C65.5 41.4449 65.9856 41.9303 66.5843 41.9303Z" fill="#D9D9D9"/>
<path d="M67.8849 31.0274C68.1707 31.0274 68.4024 30.7957 68.4024 30.5099C68.4024 30.2239 68.1707 29.9922 67.8849 29.9922C67.5989 29.9922 67.3672 30.2239 67.3672 30.5099C67.3672 30.7957 67.5989 31.0274 67.8849 31.0274Z" fill="#D9D9D9"/>
<path d="M20.8927 35.4551C21.1785 35.4551 21.4103 35.2234 21.4103 34.9374C21.4103 34.6517 21.1785 34.4199 20.8927 34.4199C20.6068 34.4199 20.375 34.6517 20.375 34.9374C20.375 35.2234 20.6068 35.4551 20.8927 35.4551Z" fill="#D9D9D9"/>
<path d="M44.7134 20.2287C45.0385 20.2287 45.302 19.9653 45.302 19.6402C45.302 19.3152 45.0385 19.0518 44.7134 19.0518C44.3885 19.0518 44.125 19.3152 44.125 19.6402C44.125 19.9653 44.3885 20.2287 44.7134 20.2287Z" fill="#D9D9D9"/>
<path d="M31.0131 37.4694C31.021 37.1562 31.1301 35.0775 32.8824 33.7992C34.9742 32.2733 37.5581 33.4068 38.0642 33.6467C39.9893 34.5602 40.8087 36.308 40.9457 36.6093C41.3843 37.5804 41.7872 39.1738 39.767 46.4904C39.3224 48.1016 38.9214 49.4037 38.6595 50.2339C38.5702 50.5431 38.2626 50.7354 37.9451 50.6799L37.9114 50.674C37.8974 50.672 37.8835 50.6679 37.8677 50.6639C37.0204 50.4519 35.7084 50.1131 34.1129 49.6532C26.8117 47.5467 25.6626 46.3716 25.0614 45.4896C24.8749 45.2162 23.8131 43.605 24.0392 41.4884C24.0989 40.9315 24.4818 38.1393 26.8792 37.1562C28.8875 36.3339 30.6677 37.3466 30.9395 37.5032L31.005 37.5466L31.0111 37.4674L31.0131 37.4694Z" stroke="#D9D9D9" stroke-width="1.2555" stroke-miterlimit="10"/>
<mask id="mask1_369_3819" style="mask-type:luminance" maskUnits="userSpaceOnUse" x="32" y="23" width="20" height="29">
<path d="M32.2812 31.1449C32.6773 31.1449 37.5204 28.8055 40.1488 31.8579C42.7775 34.9105 42.1853 36.4931 42.1853 36.4931L42.3833 43.0298L41.1948 49.3683L40.9966 51.5472C40.9966 51.5472 50.5047 46.7932 50.7027 46.7932C50.9007 46.7932 51.4949 39.068 51.0989 35.8989C50.7027 32.7295 48.92 27.9755 48.1275 26.9853C47.3353 25.9948 45.5527 24.4102 44.166 24.0139C42.7795 23.6177 37.4313 23.4197 37.035 23.6177L32.2812 31.1449Z" fill="white"/>
</mask>
<g mask="url(#mask1_369_3819)">
<path d="M43.7624 48.5682C44.8301 47.9798 45.6304 47.0289 46.1393 45.7356C46.6109 44.5431 46.5236 43.6002 46.4325 42.6C46.4069 42.3107 46.3792 42.0096 46.3632 41.6908C46.2721 39.813 46.6663 38.8106 47.0486 37.842C47.423 36.8934 47.8093 35.9108 47.6984 34.2825C47.5834 32.6148 46.9932 29.5523 44.3191 27.7539C43.9703 27.5201 40.8149 25.5095 37.424 27.0903C34.9181 28.2608 33.3474 30.8953 33.4246 33.8111C33.4325 34.134 33.702 34.3896 34.0267 34.3817C34.3496 34.3736 34.6052 34.1043 34.5973 33.7794C34.5318 31.3332 35.8352 29.1225 37.919 28.1519C40.7733 26.8208 43.5485 28.6471 43.6655 28.7263C45.9256 30.2457 46.4305 32.9079 46.5297 34.3619C46.6226 35.7265 46.3157 36.507 45.9591 37.4122C45.5512 38.4463 45.0895 39.6188 45.1946 41.7482C45.2123 42.0929 45.2402 42.4059 45.2679 42.7069C45.353 43.638 45.4205 44.3728 45.0519 45.3057C44.63 46.3733 43.9784 47.1419 43.1088 47.5896C41.8628 48.2334 39.9692 48.2869 38.7569 47.148C38.0636 46.4941 37.8121 45.6623 37.723 45.08C37.6735 44.7591 37.3763 44.5391 37.0554 44.5886C36.7366 44.6383 36.5147 44.9353 36.5642 45.2562C36.681 46.0207 37.0158 47.1201 37.9547 48.0016C39.6384 49.5863 42.0846 49.4396 43.6475 48.6316C43.6871 48.6118 43.7269 48.59 43.7645 48.5682H43.7624Z" fill="#D9D9D9"/>
<path d="M40.8603 31.1156C41.0842 31.074 41.2604 31.0067 41.4388 30.9692C41.7952 30.9077 42.1379 30.9809 42.4488 31.1672C42.6095 31.2621 42.7877 31.389 42.9798 31.504C43.0669 31.5553 43.1799 31.5296 43.2314 31.4426C43.2532 31.4048 43.2611 31.3631 43.257 31.3235C43.2372 31.1791 43.1877 31.0562 43.1184 30.9374C42.7539 30.3293 41.9041 30.0935 41.2586 30.359C40.9989 30.4521 40.7652 30.6105 40.6425 30.8699C40.575 31.0126 40.7139 31.1631 40.8624 31.1156H40.8603Z" fill="#D9D9D9"/>
</g>
<mask id="mask2_369_3819" style="mask-type:luminance" maskUnits="userSpaceOnUse" x="46" y="19" width="16" height="20">
<path d="M56.7121 19.2869L46.3594 22.2422L50.861 38.0121L61.2137 35.0568L56.7121 19.2869Z" fill="white"/>
</mask>
<g mask="url(#mask2_369_3819)">
<mask id="mask3_369_3819" style="mask-type:luminance" maskUnits="userSpaceOnUse" x="46" y="19" width="16" height="19">
<path d="M56.848 19.3085L46.4531 22.0938L50.6977 37.9347L61.0925 35.1495L56.848 19.3085Z" fill="white"/>
</mask>
<g mask="url(#mask3_369_3819)">
<path opacity="0.9" d="M50.9642 36.4373C50.8472 36.4686 50.7194 36.4551 50.6062 36.3905C50.3794 36.2604 50.302 35.9709 50.4323 35.7452C51.1003 34.5831 51.461 33.2857 51.4761 31.9942C51.4885 30.8901 51.2493 30.0639 51.1215 29.6196C50.5898 27.7779 49.6169 26.5564 49.0839 25.9917C48.5414 25.417 47.9179 24.9189 47.2315 24.5116C47.0069 24.3782 46.9333 24.0888 47.0659 23.8643C47.1995 23.6397 47.4889 23.5662 47.7132 23.6987C48.4753 24.1512 49.1676 24.7042 49.771 25.343C50.3628 25.9701 51.4428 27.3243 52.0296 29.3568C52.1614 29.8126 52.435 30.7608 52.4209 32.0041C52.4042 33.4576 51.9999 34.9134 51.252 36.2154C51.1865 36.3288 51.0817 36.4049 50.9647 36.4362L50.9642 36.4373Z" fill="#D9D9D9"/>
<path opacity="0.6" d="M54.6926 36.637C54.6031 36.6611 54.5065 36.6586 54.4127 36.626C54.1663 36.5394 54.0381 36.2685 54.1249 36.023C54.5257 34.8933 54.77 33.7163 54.8517 32.5243C54.9788 30.6723 54.6845 29.2386 54.552 28.7076C53.8939 26.0719 52.4809 24.3813 51.9044 23.7774C51.3192 23.1643 50.6557 22.6229 49.9321 22.1681C49.7109 22.0288 49.6445 21.7374 49.7838 21.5161C49.9231 21.2948 50.2144 21.2285 50.4358 21.3678C51.2254 21.8646 51.9492 22.4553 52.5884 23.1244C53.2168 23.783 54.757 25.6235 55.4691 28.4785C55.6122 29.0525 55.9306 30.6023 55.7944 32.5886C55.7074 33.8664 55.4448 35.1284 55.0155 36.3382C54.9615 36.4906 54.8377 36.5981 54.6926 36.637Z" fill="#D9D9D9"/>
<path opacity="0.3" d="M58.6587 35.7983C58.5748 35.8208 58.4837 35.8208 58.395 35.7927C58.1462 35.7146 58.0076 35.4494 58.0857 35.2005C58.5343 33.7713 58.728 32.3183 58.6621 30.8819C58.5996 29.5348 58.3237 28.509 58.0562 27.5172C57.7027 26.2059 57.4244 25.1709 56.7654 24.0581C56.0433 22.8386 55.029 21.7925 53.7513 20.949C53.5337 20.8048 53.4736 20.5117 53.6169 20.2943C53.7612 20.0766 54.0543 20.0166 54.2717 20.1599C55.6696 21.0827 56.782 22.2327 57.5774 23.5763C58.3028 24.8006 58.5969 25.8909 58.9679 27.272C59.2478 28.3133 59.538 29.389 59.6046 30.8389C59.6757 32.3862 59.4674 33.9488 58.9854 35.4838C58.9353 35.644 58.8075 35.7585 58.6569 35.7988L58.6587 35.7983Z" fill="#D9D9D9"/>
</g>
</g>
<defs>
<linearGradient id="paint0_linear_369_3819" x1="48.526" y1="51.9362" x2="48.526" y2="71.3418" gradientUnits="userSpaceOnUse">
<stop stop-color="#373737"/>
<stop offset="0.25" stop-color="#2F2F2F"/>
<stop offset="0.63" stop-color="#1A1A1A"/>
<stop offset="1"/>
</linearGradient>
<linearGradient id="paint1_linear_369_3819" x1="46.8224" y1="46.6364" x2="46.8224" y2="65.4988" gradientUnits="userSpaceOnUse">
<stop stop-color="#373737"/>
<stop offset="0.25" stop-color="#2F2F2F"/>
<stop offset="0.63" stop-color="#1A1A1A"/>
<stop offset="1"/>
</linearGradient>
<linearGradient id="paint2_linear_369_3819" x1="44.9978" y1="13.0518" x2="44.9978" y2="60.198" gradientUnits="userSpaceOnUse">
<stop stop-color="#373737"/>
<stop offset="0.25" stop-color="#2F2F2F"/>
<stop offset="0.63" stop-color="#1A1A1A"/>
<stop offset="1"/>
</linearGradient>
<linearGradient id="paint3_linear_369_3819" x1="51.2011" y1="57.8064" x2="51.2011" y2="76.9521" gradientUnits="userSpaceOnUse">
<stop stop-color="#373737"/>
<stop offset="0.25" stop-color="#2F2F2F"/>
<stop offset="0.63" stop-color="#1A1A1A"/>
<stop offset="1"/>
</linearGradient>
</defs>
</svg>
